<?xml version="1.0" encoding="UTF-8" standalone="no"?>
<!DOCTYPE svg PUBLIC "-//W3C//DTD SVG 1.1//EN" "http://www.w3.org/Graphics/SVG/1.1/DTD/svg11.dtd">
<svg width="100%" height="100%" viewBox="0 0 370 171" version="1.1" xmlns="http://www.w3.org/2000/svg" xmlns:xlink="http://www.w3.org/1999/xlink" xml:space="preserve" xmlns:serif="http://www.serif.com/" style="fill-rule:evenodd;clip-rule:evenodd;stroke-linejoin:round;stroke-miterlimit:2;">
    <g transform="matrix(1,0,0,1,-65.390625,-164.505214)">
        <g transform="matrix(1.333333,0,0,1.333333,0,0.000006)">
            <g transform="matrix(1,0,0,1,191,220)">
                <g>
                    <g>
                        <clipPath id="_clip1">
                            <rect x="0.145" y="0.578" width="134.812" height="31.043"/>
                        </clipPath>
                        <g clip-path="url(#_clip1)">
                            <rect x="0.145" y="0.578" width="134.859" height="31.043" style="fill:rgb(167,168,168);fill-rule:nonzero;"/>
                        </g>
                    </g>
                </g>
            </g>
        </g>
        <g transform="matrix(1.333333,0,0,1.333333,0,0.000006)">
            <g transform="matrix(1,0,0,1,191,123)">
                <g>
                    <g>
                        <rect x="0.145" y="0.379" width="134.797" height="86.055" style="fill:rgb(194,71,60);fill-rule:nonzero;"/>
                    </g>
                </g>
            </g>
        </g>
        <g transform="matrix(1.333333,0,0,1.333333,0,0.000006)">
            <g transform="matrix(1,0,0,1,210.643921,190.780447)">
                <g>
                    <path d="M37.438,-41.281L22.359,-41.281L22.359,0L16.094,0L16.094,-41.281L0.969,-41.281L0.969,-46.578L37.438,-46.578L37.438,-41.281Z" style="fill:white;fill-rule:nonzero;"/>
                </g>
            </g>
        </g>
        <g transform="matrix(1.333333,0,0,1.333333,0,0.000006)">
            <g transform="matrix(1,0,0,1,241.092344,190.780447)">
                <g>
                    <path d="M26.625,-20.047C26.625,-21.391 26.43,-22.617 26.047,-23.734C25.672,-24.859 25.117,-25.828 24.391,-26.641C23.66,-27.453 22.773,-28.078 21.734,-28.516C20.703,-28.961 19.523,-29.188 18.203,-29.188C15.43,-29.188 13.238,-28.379 11.625,-26.766C10.008,-25.148 9.004,-22.91 8.609,-20.047L26.625,-20.047ZM31.297,-4.609C30.578,-3.742 29.719,-2.988 28.719,-2.344C27.727,-1.707 26.664,-1.18 25.531,-0.766C24.395,-0.359 23.219,-0.055 22,0.141C20.789,0.348 19.586,0.453 18.391,0.453C16.117,0.453 14.023,0.066 12.109,-0.703C10.191,-1.473 8.531,-2.598 7.125,-4.078C5.727,-5.566 4.641,-7.406 3.859,-9.594C3.086,-11.781 2.703,-14.289 2.703,-17.125C2.703,-19.426 3.051,-21.57 3.75,-23.562C4.457,-25.551 5.473,-27.273 6.797,-28.734C8.117,-30.203 9.734,-31.352 11.641,-32.188C13.547,-33.02 15.688,-33.438 18.062,-33.438C20.039,-33.438 21.867,-33.102 23.547,-32.438C25.223,-31.781 26.672,-30.828 27.891,-29.578C29.117,-28.336 30.078,-26.801 30.766,-24.969C31.461,-23.145 31.812,-21.062 31.812,-18.719C31.812,-17.812 31.711,-17.203 31.516,-16.891C31.328,-16.586 30.961,-16.438 30.422,-16.438L8.422,-16.438C8.484,-14.363 8.77,-12.555 9.281,-11.016C9.789,-9.473 10.5,-8.188 11.406,-7.156C12.312,-6.133 13.395,-5.367 14.656,-4.859C15.914,-4.348 17.32,-4.094 18.875,-4.094C20.332,-4.094 21.586,-4.258 22.641,-4.594C23.691,-4.938 24.594,-5.301 25.344,-5.688C26.102,-6.07 26.738,-6.43 27.25,-6.766C27.758,-7.109 28.195,-7.281 28.562,-7.281C29.039,-7.281 29.41,-7.098 29.672,-6.734L31.297,-4.609Z" style="fill:white;fill-rule:nonzero;"/>
                </g>
            </g>
        </g>
        <g transform="matrix(1.333333,0,0,1.333333,0,0.000006)">
            <g transform="matrix(1,0,0,1,275.408161,190.780447)">
                <g>
                    <path d="M27.5,-27.078C27.32,-26.836 27.145,-26.648 26.969,-26.516C26.801,-26.391 26.566,-26.328 26.266,-26.328C25.93,-26.328 25.57,-26.461 25.188,-26.734C24.801,-27.004 24.316,-27.301 23.734,-27.625C23.16,-27.945 22.457,-28.242 21.625,-28.516C20.789,-28.785 19.77,-28.922 18.562,-28.922C16.938,-28.922 15.504,-28.633 14.266,-28.062C13.035,-27.488 12,-26.66 11.156,-25.578C10.32,-24.492 9.691,-23.18 9.266,-21.641C8.848,-20.109 8.641,-18.391 8.641,-16.484C8.641,-14.484 8.867,-12.707 9.328,-11.156C9.785,-9.613 10.43,-8.316 11.266,-7.266C12.098,-6.211 13.102,-5.41 14.281,-4.859C15.469,-4.305 16.797,-4.031 18.266,-4.031C19.672,-4.031 20.828,-4.195 21.734,-4.531C22.648,-4.863 23.406,-5.234 24,-5.641C24.594,-6.055 25.086,-6.43 25.484,-6.766C25.891,-7.109 26.289,-7.281 26.688,-7.281C27.156,-7.281 27.52,-7.098 27.781,-6.734L29.406,-4.609C28.695,-3.723 27.883,-2.961 26.969,-2.328C26.062,-1.703 25.082,-1.176 24.031,-0.75C22.977,-0.332 21.879,-0.031 20.734,0.156C19.586,0.352 18.414,0.453 17.219,0.453C15.164,0.453 13.254,0.078 11.484,-0.672C9.723,-1.43 8.191,-2.531 6.891,-3.969C5.586,-5.414 4.566,-7.191 3.828,-9.297C3.098,-11.398 2.734,-13.797 2.734,-16.484C2.734,-18.93 3.07,-21.191 3.75,-23.266C4.438,-25.348 5.43,-27.141 6.734,-28.641C8.047,-30.148 9.66,-31.328 11.578,-32.172C13.504,-33.016 15.711,-33.438 18.203,-33.438C20.516,-33.438 22.551,-33.062 24.312,-32.312C26.082,-31.57 27.648,-30.52 29.016,-29.156L27.5,-27.078Z" style="fill:white;fill-rule:nonzero;"/>
                </g>
            </g>
        </g>
        <g transform="matrix(1.333333,0,0,1.333333,0,0.000006)">
            <g transform="matrix(1,0,0,1,49,123)">
                <g>
                    <g>
                        <rect x="0.043" y="0.379" width="134.801" height="86.055" style="fill:rgb(194,71,60);fill-rule:nonzero;"/>
                    </g>
                </g>
            </g>
        </g>
        <g transform="matrix(1.333333,0,0,1.333333,0,0.000006)">
            <g transform="matrix(1,0,0,1,67.646937,190.780447)">
                <g>
                    <path d="M19.688,-22.422C21.488,-22.422 23.078,-22.66 24.453,-23.141C25.828,-23.617 26.984,-24.285 27.922,-25.141C28.867,-25.992 29.582,-27.016 30.062,-28.203C30.539,-29.398 30.781,-30.711 30.781,-32.141C30.781,-35.109 29.863,-37.426 28.031,-39.094C26.195,-40.758 23.414,-41.594 19.688,-41.594L12.219,-41.594L12.219,-22.422L19.688,-22.422ZM19.688,-46.578C22.633,-46.578 25.195,-46.234 27.375,-45.547C29.551,-44.867 31.352,-43.898 32.781,-42.641C34.219,-41.379 35.285,-39.859 35.984,-38.078C36.691,-36.305 37.047,-34.328 37.047,-32.141C37.047,-29.973 36.664,-27.988 35.906,-26.188C35.156,-24.395 34.047,-22.848 32.578,-21.547C31.117,-20.242 29.312,-19.227 27.156,-18.5C25,-17.781 22.508,-17.422 19.688,-17.422L12.219,-17.422L12.219,0L5.953,0L5.953,-46.578L19.688,-46.578Z" style="fill:white;fill-rule:nonzero;"/>
                </g>
            </g>
        </g>
        <g transform="matrix(1.333333,0,0,1.333333,0,0.000006)">
            <g transform="matrix(1,0,0,1,106.057221,190.780447)">
                <g>
                    <path d="M10.078,-26.328C11.117,-28.578 12.395,-30.332 13.906,-31.594C15.426,-32.863 17.281,-33.5 19.469,-33.5C20.156,-33.5 20.816,-33.422 21.453,-33.266C22.098,-33.117 22.672,-32.883 23.172,-32.562L22.75,-28.25C22.625,-27.707 22.301,-27.438 21.781,-27.438C21.469,-27.438 21.02,-27.5 20.438,-27.625C19.852,-27.75 19.191,-27.812 18.453,-27.812C17.422,-27.812 16.5,-27.66 15.688,-27.359C14.875,-27.055 14.145,-26.609 13.5,-26.016C12.863,-25.422 12.289,-24.68 11.781,-23.797C11.27,-22.922 10.812,-21.922 10.406,-20.797L10.406,0L4.578,0L4.578,-32.922L7.891,-32.922C8.523,-32.922 8.961,-32.801 9.203,-32.562C9.441,-32.32 9.602,-31.91 9.688,-31.328L10.078,-26.328Z" style="fill:white;fill-rule:nonzero;"/>
                </g>
            </g>
        </g>
        <g transform="matrix(1.333333,0,0,1.333333,0,0.000006)">
            <g transform="matrix(1,0,0,1,128.38193,190.780447)">
                <g>
                    <path d="M18.453,-33.438C20.859,-33.438 23.023,-33.035 24.953,-32.234C26.891,-31.43 28.539,-30.297 29.906,-28.828C31.27,-27.359 32.312,-25.578 33.031,-23.484C33.758,-21.391 34.125,-19.055 34.125,-16.484C34.125,-13.879 33.758,-11.535 33.031,-9.453C32.312,-7.379 31.27,-5.602 29.906,-4.125C28.539,-2.656 26.891,-1.523 24.953,-0.734C23.023,0.055 20.859,0.453 18.453,0.453C16.023,0.453 13.844,0.055 11.906,-0.734C9.969,-1.523 8.316,-2.656 6.953,-4.125C5.586,-5.602 4.539,-7.379 3.812,-9.453C3.094,-11.535 2.734,-13.879 2.734,-16.484C2.734,-19.055 3.094,-21.391 3.812,-23.484C4.539,-25.578 5.586,-27.359 6.953,-28.828C8.316,-30.297 9.969,-31.43 11.906,-32.234C13.844,-33.035 16.023,-33.438 18.453,-33.438ZM18.453,-4.062C21.703,-4.062 24.129,-5.148 25.734,-7.328C27.336,-9.504 28.141,-12.539 28.141,-16.438C28.141,-20.363 27.336,-23.422 25.734,-25.609C24.129,-27.797 21.703,-28.891 18.453,-28.891C16.805,-28.891 15.367,-28.609 14.141,-28.047C12.922,-27.484 11.906,-26.672 11.094,-25.609C10.281,-24.547 9.672,-23.238 9.266,-21.688C8.867,-20.145 8.672,-18.395 8.672,-16.438C8.672,-12.539 9.477,-9.504 11.094,-7.328C12.707,-5.148 15.16,-4.062 18.453,-4.062Z" style="fill:white;fill-rule:nonzero;"/>
                </g>
            </g>
        </g>
        <g transform="matrix(1.333333,0,0,1.333333,0,0.000006)">
            <g transform="matrix(1,0,0,1,192.901091,244.349588)">
                <g>
                    <path d="M9.172,-8.844C8.785,-9.352 8.367,-9.707 7.922,-9.906C7.484,-10.113 6.992,-10.219 6.453,-10.219C5.367,-10.219 4.535,-9.832 3.953,-9.062C3.379,-8.289 3.094,-7.191 3.094,-5.766C3.094,-5.004 3.156,-4.352 3.281,-3.812C3.414,-3.281 3.609,-2.836 3.859,-2.484C4.109,-2.141 4.414,-1.883 4.781,-1.719C5.156,-1.562 5.57,-1.484 6.031,-1.484C6.707,-1.484 7.297,-1.633 7.797,-1.938C8.297,-2.25 8.754,-2.68 9.172,-3.234L9.172,-8.844ZM11.219,-16.875L11.219,0L10,0C9.707,0 9.523,-0.141 9.453,-0.422L9.266,-1.828C8.766,-1.234 8.195,-0.754 7.562,-0.391C6.938,-0.023 6.207,0.156 5.375,0.156C4.707,0.156 4.102,0.031 3.562,-0.219C3.02,-0.477 2.555,-0.852 2.172,-1.344C1.797,-1.844 1.504,-2.461 1.297,-3.203C1.086,-3.941 0.984,-4.797 0.984,-5.766C0.984,-6.617 1.098,-7.41 1.328,-8.141C1.555,-8.879 1.883,-9.52 2.312,-10.062C2.738,-10.602 3.266,-11.031 3.891,-11.344C4.516,-11.656 5.211,-11.812 5.984,-11.812C6.703,-11.812 7.312,-11.691 7.812,-11.453C8.32,-11.211 8.773,-10.875 9.172,-10.438L9.172,-16.875L11.219,-16.875Z" style="fill:white;fill-rule:nonzero;"/>
                </g>
            </g>
        </g>
        <g transform="matrix(1.333333,0,0,1.333333,0,0.000006)">
            <g transform="matrix(1,0,0,1,205.730695,244.349588)">
                <g>
                    <path d="M9.375,-7.062C9.375,-7.539 9.305,-7.973 9.172,-8.359C9.047,-8.754 8.852,-9.094 8.594,-9.375C8.344,-9.664 8.031,-9.891 7.656,-10.047C7.289,-10.203 6.875,-10.281 6.406,-10.281C5.438,-10.281 4.664,-9.992 4.094,-9.422C3.52,-8.859 3.164,-8.07 3.031,-7.062L9.375,-7.062ZM11.031,-1.625C10.781,-1.32 10.477,-1.055 10.125,-0.828C9.77,-0.609 9.391,-0.426 8.984,-0.281C8.586,-0.133 8.176,-0.023 7.75,0.047C7.32,0.117 6.898,0.156 6.484,0.156C5.68,0.156 4.941,0.02 4.266,-0.25C3.586,-0.52 3.004,-0.914 2.516,-1.438C2.023,-1.957 1.641,-2.602 1.359,-3.375C1.086,-4.145 0.953,-5.031 0.953,-6.031C0.953,-6.844 1.07,-7.598 1.312,-8.297C1.562,-9.004 1.922,-9.613 2.391,-10.125C2.859,-10.645 3.426,-11.051 4.094,-11.344C4.77,-11.633 5.531,-11.781 6.375,-11.781C7.062,-11.781 7.703,-11.664 8.297,-11.438C8.891,-11.207 9.398,-10.867 9.828,-10.422C10.266,-9.984 10.602,-9.441 10.844,-8.797C11.094,-8.148 11.219,-7.414 11.219,-6.594C11.219,-6.27 11.18,-6.055 11.109,-5.953C11.035,-5.848 10.906,-5.797 10.719,-5.797L2.969,-5.797C2.988,-5.066 3.086,-4.426 3.266,-3.875C3.441,-3.332 3.691,-2.879 4.016,-2.516C4.336,-2.16 4.719,-1.891 5.156,-1.703C5.602,-1.523 6.102,-1.438 6.656,-1.438C7.164,-1.438 7.602,-1.492 7.969,-1.609C8.344,-1.734 8.66,-1.863 8.922,-2C9.191,-2.133 9.414,-2.258 9.594,-2.375C9.781,-2.5 9.938,-2.562 10.062,-2.562C10.227,-2.562 10.359,-2.5 10.453,-2.375L11.031,-1.625Z" style="fill:white;fill-rule:nonzero;"/>
                </g>
            </g>
        </g>
        <g transform="matrix(1.333333,0,0,1.333333,0,0.000006)">
            <g transform="matrix(1,0,0,1,217.575146,244.349588)">
                <g>
                    <path d="M11.562,-11.609L6.828,0L5,0L0.266,-11.609L1.922,-11.609C2.086,-11.609 2.223,-11.562 2.328,-11.469C2.441,-11.383 2.516,-11.285 2.547,-11.172L5.5,-3.703C5.594,-3.422 5.672,-3.145 5.734,-2.875C5.805,-2.613 5.875,-2.348 5.938,-2.078C6,-2.348 6.062,-2.613 6.125,-2.875C6.195,-3.145 6.281,-3.422 6.375,-3.703L9.359,-11.172C9.398,-11.297 9.473,-11.398 9.578,-11.484C9.691,-11.566 9.82,-11.609 9.969,-11.609L11.562,-11.609Z" style="fill:white;fill-rule:nonzero;"/>
                </g>
            </g>
        </g>
        <g transform="matrix(1.333333,0,0,1.333333,0,0.000006)">
            <g transform="matrix(1,0,0,1,229.075931,244.349588)">
                <g>
                    <path d="M9.375,-7.062C9.375,-7.539 9.305,-7.973 9.172,-8.359C9.047,-8.754 8.852,-9.094 8.594,-9.375C8.344,-9.664 8.031,-9.891 7.656,-10.047C7.289,-10.203 6.875,-10.281 6.406,-10.281C5.438,-10.281 4.664,-9.992 4.094,-9.422C3.52,-8.859 3.164,-8.07 3.031,-7.062L9.375,-7.062ZM11.031,-1.625C10.781,-1.32 10.477,-1.055 10.125,-0.828C9.77,-0.609 9.391,-0.426 8.984,-0.281C8.586,-0.133 8.176,-0.023 7.75,0.047C7.32,0.117 6.898,0.156 6.484,0.156C5.68,0.156 4.941,0.02 4.266,-0.25C3.586,-0.52 3.004,-0.914 2.516,-1.438C2.023,-1.957 1.641,-2.602 1.359,-3.375C1.086,-4.145 0.953,-5.031 0.953,-6.031C0.953,-6.844 1.07,-7.598 1.312,-8.297C1.562,-9.004 1.922,-9.613 2.391,-10.125C2.859,-10.645 3.426,-11.051 4.094,-11.344C4.77,-11.633 5.531,-11.781 6.375,-11.781C7.062,-11.781 7.703,-11.664 8.297,-11.438C8.891,-11.207 9.398,-10.867 9.828,-10.422C10.266,-9.984 10.602,-9.441 10.844,-8.797C11.094,-8.148 11.219,-7.414 11.219,-6.594C11.219,-6.27 11.18,-6.055 11.109,-5.953C11.035,-5.848 10.906,-5.797 10.719,-5.797L2.969,-5.797C2.988,-5.066 3.086,-4.426 3.266,-3.875C3.441,-3.332 3.691,-2.879 4.016,-2.516C4.336,-2.16 4.719,-1.891 5.156,-1.703C5.602,-1.523 6.102,-1.438 6.656,-1.438C7.164,-1.438 7.602,-1.492 7.969,-1.609C8.344,-1.734 8.66,-1.863 8.922,-2C9.191,-2.133 9.414,-2.258 9.594,-2.375C9.781,-2.5 9.938,-2.562 10.062,-2.562C10.227,-2.562 10.359,-2.5 10.453,-2.375L11.031,-1.625Z" style="fill:white;fill-rule:nonzero;"/>
                </g>
            </g>
        </g>
        <g transform="matrix(1.333333,0,0,1.333333,0,0.000006)">
            <g transform="matrix(1,0,0,1,241.172415,244.349588)">
                <g>
                    <rect x="1.688" y="-16.875" width="2.031" height="16.875" style="fill:white;fill-rule:nonzero;"/>
                </g>
            </g>
        </g>
        <g transform="matrix(1.333333,0,0,1.333333,0,0.000006)">
            <g transform="matrix(1,0,0,1,246.579176,244.349588)">
                <g>
                    <path d="M6.5,-11.781C7.352,-11.781 8.117,-11.641 8.797,-11.359C9.473,-11.078 10.051,-10.676 10.531,-10.156C11.02,-9.633 11.391,-9.004 11.641,-8.266C11.898,-7.535 12.031,-6.719 12.031,-5.812C12.031,-4.895 11.898,-4.066 11.641,-3.328C11.391,-2.598 11.02,-1.973 10.531,-1.453C10.051,-0.93 9.473,-0.531 8.797,-0.25C8.117,0.02 7.352,0.156 6.5,0.156C5.645,0.156 4.875,0.02 4.188,-0.25C3.508,-0.531 2.93,-0.93 2.453,-1.453C1.973,-1.973 1.602,-2.598 1.344,-3.328C1.094,-4.066 0.969,-4.895 0.969,-5.812C0.969,-6.719 1.094,-7.535 1.344,-8.266C1.602,-9.004 1.973,-9.633 2.453,-10.156C2.93,-10.676 3.508,-11.078 4.188,-11.359C4.875,-11.641 5.645,-11.781 6.5,-11.781ZM6.5,-1.438C7.645,-1.438 8.5,-1.816 9.062,-2.578C9.633,-3.348 9.922,-4.422 9.922,-5.797C9.922,-7.18 9.633,-8.258 9.062,-9.031C8.5,-9.801 7.645,-10.188 6.5,-10.188C5.926,-10.188 5.422,-10.086 4.984,-9.891C4.555,-9.691 4.195,-9.406 3.906,-9.031C3.625,-8.656 3.41,-8.191 3.266,-7.641C3.129,-7.098 3.062,-6.484 3.062,-5.797C3.062,-4.422 3.344,-3.348 3.906,-2.578C4.477,-1.816 5.344,-1.438 6.5,-1.438Z" style="fill:white;fill-rule:nonzero;"/>
                </g>
            </g>
        </g>
        <g transform="matrix(1.333333,0,0,1.333333,0,0.000006)">
            <g transform="matrix(1,0,0,1,259.569147,244.349588)">
                <g>
                    <path d="M3.672,-2.797C4.035,-2.285 4.441,-1.926 4.891,-1.719C5.336,-1.52 5.832,-1.422 6.375,-1.422C7.457,-1.422 8.289,-1.805 8.875,-2.578C9.457,-3.348 9.75,-4.445 9.75,-5.875C9.75,-6.633 9.68,-7.285 9.547,-7.828C9.41,-8.367 9.219,-8.812 8.969,-9.156C8.719,-9.5 8.406,-9.75 8.031,-9.906C7.664,-10.07 7.254,-10.156 6.797,-10.156C6.129,-10.156 5.547,-10.004 5.047,-9.703C4.547,-9.398 4.086,-8.969 3.672,-8.406L3.672,-2.797ZM3.562,-9.797C4.051,-10.398 4.613,-10.883 5.25,-11.25C5.895,-11.625 6.629,-11.812 7.453,-11.812C8.129,-11.812 8.738,-11.68 9.281,-11.422C9.82,-11.172 10.281,-10.797 10.656,-10.297C11.039,-9.797 11.336,-9.172 11.547,-8.422C11.754,-7.68 11.859,-6.832 11.859,-5.875C11.859,-5.02 11.742,-4.223 11.516,-3.484C11.285,-2.742 10.953,-2.102 10.516,-1.562C10.086,-1.031 9.562,-0.609 8.938,-0.297C8.312,0.004 7.613,0.156 6.844,0.156C6.125,0.156 5.508,0.035 5,-0.203C4.5,-0.441 4.055,-0.773 3.672,-1.203L3.672,3.922L1.609,3.922L1.609,-11.609L2.844,-11.609C3.133,-11.609 3.312,-11.461 3.375,-11.172L3.562,-9.797Z" style="fill:white;fill-rule:nonzero;"/>
                </g>
            </g>
        </g>
        <g transform="matrix(1.333333,0,0,1.333333,0,0.000006)">
            <g transform="matrix(1,0,0,1,272.410195,244.349588)">
                <g>
                    <path d="M1.609,0L1.609,-11.609L2.844,-11.609C3.133,-11.609 3.312,-11.461 3.375,-11.172L3.531,-9.984C3.957,-10.516 4.438,-10.945 4.969,-11.281C5.5,-11.613 6.117,-11.781 6.828,-11.781C7.609,-11.781 8.238,-11.562 8.719,-11.125C9.207,-10.695 9.555,-10.113 9.766,-9.375C9.93,-9.789 10.145,-10.148 10.406,-10.453C10.676,-10.766 10.973,-11.02 11.297,-11.219C11.629,-11.414 11.977,-11.555 12.344,-11.641C12.719,-11.734 13.098,-11.781 13.484,-11.781C14.086,-11.781 14.629,-11.68 15.109,-11.484C15.586,-11.297 15.992,-11.016 16.328,-10.641C16.66,-10.266 16.91,-9.801 17.078,-9.25C17.254,-8.707 17.344,-8.086 17.344,-7.391L17.344,0L15.297,0L15.297,-7.391C15.297,-8.297 15.098,-8.984 14.703,-9.453C14.305,-9.922 13.734,-10.156 12.984,-10.156C12.648,-10.156 12.332,-10.094 12.031,-9.969C11.727,-9.852 11.461,-9.68 11.234,-9.453C11.004,-9.223 10.82,-8.938 10.688,-8.594C10.551,-8.25 10.484,-7.848 10.484,-7.391L10.484,0L8.438,0L8.438,-7.391C8.438,-8.316 8.25,-9.008 7.875,-9.469C7.5,-9.926 6.953,-10.156 6.234,-10.156C5.734,-10.156 5.27,-10.02 4.844,-9.75C4.414,-9.477 4.023,-9.109 3.672,-8.641L3.672,0L1.609,0Z" style="fill:white;fill-rule:nonzero;"/>
                </g>
            </g>
        </g>
        <g transform="matrix(1.333333,0,0,1.333333,0,0.000006)">
            <g transform="matrix(1,0,0,1,291.25367,244.349588)">
                <g>
                    <path d="M9.375,-7.062C9.375,-7.539 9.305,-7.973 9.172,-8.359C9.047,-8.754 8.852,-9.094 8.594,-9.375C8.344,-9.664 8.031,-9.891 7.656,-10.047C7.289,-10.203 6.875,-10.281 6.406,-10.281C5.438,-10.281 4.664,-9.992 4.094,-9.422C3.52,-8.859 3.164,-8.07 3.031,-7.062L9.375,-7.062ZM11.031,-1.625C10.781,-1.32 10.477,-1.055 10.125,-0.828C9.77,-0.609 9.391,-0.426 8.984,-0.281C8.586,-0.133 8.176,-0.023 7.75,0.047C7.32,0.117 6.898,0.156 6.484,0.156C5.68,0.156 4.941,0.02 4.266,-0.25C3.586,-0.52 3.004,-0.914 2.516,-1.438C2.023,-1.957 1.641,-2.602 1.359,-3.375C1.086,-4.145 0.953,-5.031 0.953,-6.031C0.953,-6.844 1.07,-7.598 1.312,-8.297C1.562,-9.004 1.922,-9.613 2.391,-10.125C2.859,-10.645 3.426,-11.051 4.094,-11.344C4.77,-11.633 5.531,-11.781 6.375,-11.781C7.062,-11.781 7.703,-11.664 8.297,-11.438C8.891,-11.207 9.398,-10.867 9.828,-10.422C10.266,-9.984 10.602,-9.441 10.844,-8.797C11.094,-8.148 11.219,-7.414 11.219,-6.594C11.219,-6.27 11.18,-6.055 11.109,-5.953C11.035,-5.848 10.906,-5.797 10.719,-5.797L2.969,-5.797C2.988,-5.066 3.086,-4.426 3.266,-3.875C3.441,-3.332 3.691,-2.879 4.016,-2.516C4.336,-2.16 4.719,-1.891 5.156,-1.703C5.602,-1.523 6.102,-1.438 6.656,-1.438C7.164,-1.438 7.602,-1.492 7.969,-1.609C8.344,-1.734 8.66,-1.863 8.922,-2C9.191,-2.133 9.414,-2.258 9.594,-2.375C9.781,-2.5 9.938,-2.562 10.062,-2.562C10.227,-2.562 10.359,-2.5 10.453,-2.375L11.031,-1.625Z" style="fill:white;fill-rule:nonzero;"/>
                </g>
            </g>
        </g>
        <g transform="matrix(1.333333,0,0,1.333333,0,0.000006)">
            <g transform="matrix(1,0,0,1,303.350154,244.349588)">
                <g>
                    <path d="M3.531,-9.922C3.789,-10.203 4.062,-10.457 4.344,-10.688C4.625,-10.914 4.922,-11.109 5.234,-11.266C5.555,-11.43 5.895,-11.555 6.25,-11.641C6.602,-11.734 6.988,-11.781 7.406,-11.781C8.031,-11.781 8.582,-11.676 9.062,-11.469C9.551,-11.258 9.957,-10.961 10.281,-10.578C10.613,-10.191 10.863,-9.727 11.031,-9.188C11.195,-8.645 11.281,-8.047 11.281,-7.391L11.281,0L9.234,0L9.234,-7.391C9.234,-8.266 9.031,-8.941 8.625,-9.422C8.227,-9.91 7.617,-10.156 6.797,-10.156C6.191,-10.156 5.629,-10.008 5.109,-9.719C4.586,-9.426 4.109,-9.035 3.672,-8.547L3.672,0L1.609,0L1.609,-11.609L2.844,-11.609C3.133,-11.609 3.312,-11.461 3.375,-11.172L3.531,-9.922Z" style="fill:white;fill-rule:nonzero;"/>
                </g>
            </g>
        </g>
        <g transform="matrix(1.333333,0,0,1.333333,0,0.000006)">
            <g transform="matrix(1,0,0,1,315.973547,244.349588)">
                <g>
                    <path d="M5.172,0.188C4.254,0.188 3.551,-0.066 3.062,-0.578C2.57,-1.086 2.328,-1.828 2.328,-2.797L2.328,-9.891L0.922,-9.891C0.805,-9.891 0.707,-9.926 0.625,-10C0.539,-10.07 0.5,-10.188 0.5,-10.344L0.5,-11.156L2.391,-11.391L2.859,-14.984C2.879,-15.098 2.93,-15.191 3.016,-15.266C3.098,-15.336 3.203,-15.375 3.328,-15.375L4.359,-15.375L4.359,-11.375L7.719,-11.375L7.719,-9.891L4.359,-9.891L4.359,-2.938C4.359,-2.445 4.477,-2.082 4.719,-1.844C4.957,-1.602 5.266,-1.484 5.641,-1.484C5.848,-1.484 6.031,-1.508 6.188,-1.562C6.344,-1.625 6.477,-1.688 6.594,-1.75C6.707,-1.82 6.805,-1.883 6.891,-1.938C6.973,-2 7.039,-2.031 7.094,-2.031C7.207,-2.031 7.305,-1.969 7.391,-1.844L7.984,-0.875C7.629,-0.539 7.203,-0.281 6.703,-0.094C6.211,0.094 5.703,0.188 5.172,0.188Z" style="fill:white;fill-rule:nonzero;"/>
                </g>
            </g>
        </g>
    </g>
</svg>
